<svg id="Capa_9" xmlns="http://www.w3.org/2000/svg" xmlns:xlink= "http://www.w3.org/1999/xlink" width="50" height="50" x="0" y="0" enable-background="new -5 -5 50 50" version="1.1" viewBox="-5 -5 50 50" xml:space="preserve"><path fill="#142B6F" d="M20,39.008c-2.047,0-4.06-0.315-5.986-0.94c-0.788-0.254-1.219-1.101-0.965-1.889	c0.256-0.787,1.102-1.219,1.89-0.965c3.264,1.057,6.889,1.053,10.153-0.01c0.789-0.254,1.635,0.174,1.891,0.962	s-0.174,1.634-0.961,1.892C24.084,38.687,22.059,39.007,20,39.008 M5.506,31.64c-0.461,0-0.918-0.213-1.211-0.615	c-2.433-3.33-3.722-7.276-3.729-11.411c-0.002-0.828,0.669-1.501,1.497-1.503h0.003c0.827,0,1.498,0.67,1.5,1.496	c0.006,3.498,1.096,6.834,3.151,9.647c0.488,0.669,0.343,1.608-0.326,2.097C6.124,31.545,5.814,31.64,5.506,31.64 M34.514,31.608	c-0.307,0-0.615-0.092-0.881-0.286c-0.67-0.488-0.818-1.425-0.332-2.097c2.051-2.815,3.133-6.153,3.133-9.651	c0-0.828,0.672-1.537,1.5-1.537s1.5,0.635,1.5,1.463v0.074c0,4.135-1.281,8.084-3.705,11.418	C35.434,31.396,34.977,31.608,34.514,31.608 M5.461,10.567c-0.305,0-0.613-0.092-0.879-0.284c-0.671-0.486-0.82-1.425-0.334-2.095	c2.391-3.303,5.834-5.819,9.691-7.086c0.785-0.258,1.635,0.172,1.893,0.959s-0.171,1.635-0.957,1.894	c-3.263,1.069-6.174,3.198-8.197,5.993C6.385,10.353,5.926,10.567,5.461,10.567 M34.473,10.478c-0.461,0-0.918-0.211-1.211-0.611	c-2.041-2.784-4.965-4.895-8.232-5.945c-0.789-0.253-1.225-1.097-0.969-1.886c0.252-0.788,1.1-1.226,1.887-0.97	c3.863,1.242,7.32,3.736,9.732,7.024c0.49,0.668,0.348,1.608-0.32,2.097C35.092,10.383,34.781,10.478,34.473,10.478 M15.043,30.337	c-0.239,0-0.482-0.058-0.707-0.179c-3.608-1.934-5.963-5.521-6.299-9.595c-0.025-0.303-0.039-0.604-0.041-0.9	c-0.006-0.83,0.66-1.507,1.488-1.513h0.012c0.823,0,1.494,0.664,1.5,1.489c0.002,0.223,0.012,0.449,0.03,0.675	c0.253,3.058,2.021,5.749,4.728,7.2c0.729,0.391,1.004,1.3,0.611,2.031C16.096,30.05,15.579,30.337,15.043,30.337 M25.766,29.856	c-0.486,0-0.965-0.238-1.254-0.676c-0.455-0.693-0.264-1.622,0.43-2.077c2.543-1.674,4.061-4.485,4.061-7.519	c0-0.248-0.01-0.5-0.029-0.752c-0.068-0.824,0.545-1.551,1.371-1.619c0.824-0.065,1.549,0.547,1.617,1.371	c0.029,0.336,0.041,0.67,0.041,1c0,4.047-2.023,7.795-5.414,10.023C26.334,29.775,26.049,29.856,25.766,29.856 M25.635,12.21	c-0.275,0-0.557-0.076-0.805-0.233c-1.654-1.054-3.586-1.542-5.571-1.374c-1.287,0.105-2.505,0.474-3.622,1.094	c-0.725,0.403-1.637,0.143-2.04-0.584c-0.401-0.723-0.14-1.636,0.584-2.039c1.491-0.828,3.116-1.32,4.83-1.462	c2.643-0.211,5.225,0.431,7.43,1.833c0.699,0.446,0.904,1.373,0.459,2.072C26.615,11.966,26.129,12.21,25.635,12.21"></path></svg>
