<svg id="Capa_13" xmlns="http://www.w3.org/2000/svg" xmlns:xlink= "http://www.w3.org/1999/xlink" width="50" height="50" x="0" y="0" enable-background="new -5 -5 50 50" version="1.1" viewBox="-5 -5 50 50" xml:space="preserve"><path fill="#142B6F" d="M41.307,18.61c-0.738,0-1.383-0.547-1.484-1.3C38.492,7.427,29.971-0.025,20-0.025	c-9.971,0-18.492,7.452-19.822,17.335c-0.109,0.82-0.857,1.405-1.687,1.286c-0.821-0.11-1.396-0.865-1.286-1.687	C-1.267,5.545,8.533-3.025,20-3.025c11.467,0,21.268,8.57,22.795,19.935c0.111,0.821-0.465,1.576-1.285,1.687	C41.441,18.606,41.373,18.61,41.307,18.61z M42.795,23.09c0.111-0.82-0.465-1.576-1.285-1.686c-0.828-0.117-1.578,0.465-1.688,1.285	C38.492,32.572,29.971,40.025,20,40.025c-9.971,0-18.492-7.453-19.822-17.336c-0.109-0.82-0.857-1.404-1.687-1.285	c-0.821,0.109-1.396,0.865-1.286,1.686C-1.267,34.455,8.533,43.025,20,43.025C31.467,43.025,41.268,34.455,42.795,23.09z M18.583,35.465c0.154-0.814-0.381-1.6-1.194-1.754C10.796,32.463,6.011,26.697,6.011,20c0-6.696,4.785-12.463,11.378-13.712	c0.813-0.154,1.349-0.938,1.194-1.753c-0.153-0.814-0.937-1.348-1.753-1.194C8.823,4.858,3.011,11.864,3.011,20	c0,8.136,5.812,15.142,13.819,16.658c0.095,0.018,0.188,0.027,0.281,0.027C17.818,36.686,18.448,36.184,18.583,35.465z M23.17,36.658C31.176,35.143,36.988,28.137,36.988,20c0-8.136-5.812-15.142-13.818-16.658c-0.818-0.153-1.6,0.38-1.754,1.194	s0.381,1.599,1.195,1.753C29.203,7.538,33.988,13.303,33.988,20c0,6.698-4.785,12.463-11.377,13.711	c-0.814,0.154-1.35,0.938-1.195,1.752c0.137,0.721,0.766,1.221,1.473,1.221C22.98,36.684,23.074,36.676,23.17,36.658z M28.211,18.514c0.777-0.291,1.17-1.155,0.879-1.931c-1.416-3.774-5.068-6.31-9.09-6.31c-4.021,0-7.674,2.535-9.089,6.31	c-0.291,0.775,0.102,1.64,0.878,1.931c0.772,0.293,1.64-0.102,1.931-0.878c0.979-2.609,3.502-4.362,6.28-4.362	c2.778,0,5.303,1.753,6.282,4.362c0.225,0.603,0.797,0.974,1.404,0.974C27.859,18.61,28.039,18.58,28.211,18.514z M29.09,23.416	c0.291-0.775-0.104-1.641-0.879-1.932c-0.779-0.293-1.641,0.104-1.93,0.879c-0.979,2.609-3.502,4.361-6.282,4.361	c-2.778,0-5.303-1.752-6.28-4.361c-0.29-0.775-1.152-1.17-1.931-0.879c-0.775,0.291-1.169,1.156-0.878,1.932	c1.414,3.773,5.066,6.309,9.089,6.309C24.023,29.725,27.676,27.189,29.09,23.416z"></path></svg>
