<svg id="Capa_19" xmlns="http://www.w3.org/2000/svg" xmlns:xlink= "http://www.w3.org/1999/xlink" width="50" height="50" x="0" y="0" enable-background="new -5 -5 50 50" version="1.1" viewBox="-5 -5 50 50" xml:space="preserve"><path fill="#142B6F" d="M8.449,17.882c0.735-4.361,4.422-7.874,10.381-9.89c10.27-3.475,8.909-9.465,8.893-9.525	c-0.199-0.804,0.289-1.618,1.094-1.817c0.799-0.208,1.617,0.288,1.816,1.093c0.09,0.354,2.018,8.741-10.842,13.092	c-4.793,1.622-7.849,4.372-8.384,7.547c-0.165,0.979-0.067,1.987,0.239,2.994H23.5c0.828,0,1.5,0.672,1.5,1.5s-0.672,1.5-1.5,1.5	H13.249c0.707,0.918,1.582,1.809,2.651,2.639c0.654,0.508,0.772,1.451,0.265,2.105c-0.296,0.381-0.738,0.58-1.186,0.58	c-0.321,0-0.646-0.104-0.919-0.316C9.817,26.088,7.772,21.896,8.449,17.882z M21.17,32.01c5.959-2.016,9.646-5.527,10.383-9.891	c0.676-4.013-1.369-8.205-5.613-11.5c-0.654-0.509-1.596-0.39-2.104,0.265s-0.391,1.597,0.264,2.104	c1.07,0.831,1.943,1.721,2.65,2.638H15.935c-0.828,0-1.5,0.672-1.5,1.5s0.672,1.5,1.5,1.5h12.418	c0.307,1.007,0.404,2.016,0.24,2.995c-0.535,3.174-3.592,5.926-8.384,7.547C7.35,33.52,9.278,41.906,9.366,42.26	c0.17,0.684,0.782,1.139,1.455,1.139c0.12,0,0.242-0.014,0.363-0.045c0.804-0.199,1.293-1.014,1.094-1.818	C12.262,41.475,10.9,35.484,21.17,32.01z M12.408,7.813c0.283,0.241,0.629,0.359,0.974,0.359c0.424,0,0.845-0.179,1.142-0.525	c0.538-0.63,0.464-1.577-0.166-2.115c-0.943-0.806-1.671-1.794-2.191-2.925H23.5c0.828,0,1.5-0.672,1.5-1.5s-0.672-1.5-1.5-1.5	H11.337c-0.059-0.486-0.1-0.983-0.1-1.502c0-0.828-0.672-1.5-1.5-1.5s-1.5,0.672-1.5,1.5C8.238,2.125,9.68,5.483,12.408,7.813z M27.594,32.189c-0.631-0.539-1.578-0.463-2.115,0.166c-0.539,0.629-0.465,1.576,0.166,2.113c0.941,0.807,1.67,1.797,2.189,2.928	H16.756c-0.828,0-1.5,0.672-1.5,1.5s0.672,1.5,1.5,1.5h11.906c0.059,0.486,0.1,0.982,0.1,1.502c0,0.828,0.672,1.5,1.5,1.5	s1.5-0.672,1.5-1.5C31.762,37.879,30.32,34.521,27.594,32.189z"></path></svg>

