<svg id="Capa_1" xmlns="http://www.w3.org/2000/svg" xmlns:xlink= "http://www.w3.org/1999/xlink" width="52" height="47" x="0" y="0" enable-background="new 0 0 52 47" version="1.1" viewBox="0 0 52 47" xml:space="preserve"><g><path fill="#002771" d="M39.774,12.954c-2.925,0-5.14,0.853-6.971,2.683l-3.898,3.898c-0.441,0.442-0.441,1.159,0,1.601 c0.442,0.442,1.159,0.442,1.602,0l3.897-3.899c1.397-1.397,3.054-2.019,5.37-2.019c4.567,0,8.283,3.715,8.283,8.282 c0,4.566-3.716,8.283-8.283,8.283c-2.212,0-4.292-0.861-5.884-2.451L19.683,16.043c-1.992-1.992-4.64-3.089-7.457-3.089 C6.41,12.954,1.68,17.685,1.68,23.5c0,5.816,4.73,10.547,10.546,10.547c2.925,0,5.14-0.854,6.97-2.684l3.899-3.898 c0.441-0.441,0.441-1.158,0-1.601c-0.443-0.442-1.159-0.442-1.602,0l-3.897,3.9c-1.397,1.396-3.053,2.02-5.37,2.02 c-4.567,0-8.283-3.717-8.283-8.283c0-4.567,3.716-8.282,8.283-8.282c2.212,0,4.292,0.861,5.883,2.452l14.209,13.289 c1.992,1.99,4.641,3.088,7.457,3.088c5.815,0,10.546-4.73,10.546-10.547C50.32,17.685,45.59,12.954,39.774,12.954"></path></g></svg>
