<svg id="Capa_1" xmlns="http://www.w3.org/2000/svg" xmlns:xlink= "http://www.w3.org/1999/xlink" width="47" height="47" x="0" y="0" enable-background="new 0 0 47 47" version="1.1" viewBox="0 0 47 47" xml:space="preserve"><path fill="#002771" d="M39.584,37.653H7.709c-0.625,0-1.131-0.508-1.131-1.133c0-0.623,0.506-1.131,1.131-1.131h31.875	c0.625,0,1.131,0.508,1.131,1.131C40.715,37.146,40.209,37.653,39.584,37.653 M23.84,31.679c0.84,0,1.674-0.213,2.375-0.639	c1.258-0.766,1.949-2.113,1.895-3.695c-0.07-2.125,0.469-4.205,1.443-5.567c0.504-0.703,1.691-0.636,3.312-0.464	c0.541,0.057,1.098,0.116,1.613,0.116h5.248c0.625,0,1.133-0.507,1.133-1.132s-0.508-1.132-1.133-1.132h-5.248	c-0.396,0-0.873-0.05-1.375-0.103c-1.723-0.181-4.08-0.43-5.391,1.396c-1.275,1.78-1.955,4.318-1.865,6.964	c0.027,0.773-0.246,1.34-0.809,1.683c-0.686,0.415-1.67,0.421-2.396,0.013c-0.605-0.34-0.914-0.892-0.914-1.638	c0-1.403-0.617-7.283-3.469-8.273c-1.117-0.388-2.637-0.254-3.979-0.135c-0.545,0.047-1.061,0.093-1.449,0.093H7.273	c-0.627,0-1.133,0.507-1.133,1.132s0.506,1.132,1.133,1.132h5.559c0.488,0,1.053-0.05,1.648-0.103	c1.061-0.093,2.377-0.21,3.037,0.019c0.939,0.327,1.947,3.88,1.947,6.135c0,1.556,0.754,2.872,2.068,3.61	C22.23,31.485,23.039,31.679,23.84,31.679 M23.863,21.641c0.402,0,0.795-0.166,1.072-0.453c0.361-0.37,3.525-3.716,3.525-7.244	c0-2.535-2.062-4.597-4.598-4.597s-4.598,2.062-4.598,4.597c0,3.528,3.164,6.874,3.52,7.239	C23.064,21.474,23.459,21.641,23.863,21.641 M23.314,19.61c0,0,0,0-0.002,0H23.314z M24.408,19.606c0,0.001,0,0.001,0.002,0.001	L24.408,19.606 M23.863,11.61c1.287,0,2.334,1.047,2.334,2.334c0,1.94-1.498,4.027-2.334,5.041c-0.836-1.013-2.336-3.1-2.336-5.041	C21.527,12.657,22.576,11.61,23.863,11.61"></path></svg>
