<svg version="1.1" xmlns="http://www.w3.org/2000/svg" xmlns:xlink= "http://www.w3.org/1999/xlink" id="Layer_1" x="0px" y="0px" viewBox="0 0 32 32" width="50" height="50" xml:space="preserve"><g><path fill="#142B6F" d="M6.5,4C6.1,3.7,5.6,3.8,5.3,4.1C4.9,4.5,5,5.1,5.4,5.4c0,0,4.3,3.7,4.7,9.4c0.3,3.9-1.3,7.9-4.8,11.9
		C5,27.1,5,27.6,5.4,27.9c0.2,0.1,0.4,0.2,0.6,0.2c0.2,0,0.5-0.1,0.7-0.3c3.8-4.3,5.6-8.8,5.2-13.2C11.4,8.2,6.7,4.2,6.5,4z"></path><path fill="#142B6F" d="M21.9,17.2c-0.3-3.9,1.3-7.9,4.8-11.9C27,4.9,27,4.4,26.6,4.1c-0.4-0.3-0.9-0.3-1.3,0.1
		c-3.8,4.3-5.6,8.8-5.2,13.2c0.5,6.4,5.1,10.4,5.3,10.6c0.2,0.1,0.4,0.2,0.6,0.2c0.3,0,0.5-0.1,0.7-0.3c0.3-0.4,0.3-0.9-0.1-1.3
		C26.6,26.6,22.3,22.9,21.9,17.2z"></path><path fill="#142B6F" d="M16,7.2c-0.5,0-0.9,0.4-0.9,0.9v15.8c0,0.5,0.4,0.9,0.9,0.9s0.9-0.4,0.9-0.9V8.1C16.9,7.6,16.5,7.2,16,7.2z"></path></g></svg>
