<svg id="Capa_20" xmlns="http://www.w3.org/2000/svg" xmlns:xlink= "http://www.w3.org/1999/xlink" width="50" height="50" x="0" y="0" enable-background="new -5 -5 50 50" version="1.1" viewBox="-5 -5 50 50" xml:space="preserve"><path fill="#142B6F" d="M41.711,37.713H-1.711c-0.828,0-1.5-0.672-1.5-1.5s0.672-1.5,1.5-1.5h43.422c0.828,0,1.5,0.672,1.5,1.5	S42.539,37.713,41.711,37.713z M39.941,30.809c0-0.828-0.672-1.5-1.5-1.5H1.557c-0.828,0-1.5,0.672-1.5,1.5s0.672,1.5,1.5,1.5	h36.884C39.27,32.309,39.941,31.637,39.941,30.809z M36.674,25.404c0-0.828-0.672-1.5-1.5-1.5H4.826c-0.828,0-1.5,0.672-1.5,1.5	s0.672,1.5,1.5,1.5h30.348C36.002,26.904,36.674,26.232,36.674,25.404z M33.404,20c0-0.828-0.672-1.5-1.5-1.5H8.094	c-0.828,0-1.5,0.672-1.5,1.5c0,0.829,0.672,1.5,1.5,1.5h23.81C32.732,21.5,33.404,20.828,33.404,20z M30.137,14.595	c0-0.828-0.672-1.5-1.5-1.5H11.363c-0.828,0-1.5,0.672-1.5,1.5s0.672,1.5,1.5,1.5h17.274C29.465,16.095,30.137,15.423,30.137,14.595	z M26.867,9.191c0-0.828-0.672-1.5-1.5-1.5H14.631c-0.828,0-1.5,0.672-1.5,1.5s0.672,1.5,1.5,1.5h10.736	C26.195,10.691,26.867,10.019,26.867,9.191z M23.6,3.787c0-0.828-0.672-1.5-1.5-1.5h-4.2c-0.828,0-1.5,0.672-1.5,1.5	s0.672,1.5,1.5,1.5h4.2C22.928,5.287,23.6,4.615,23.6,3.787z"></path></svg>
